<svg xmlns="http://www.w3.org/2000/svg" width="67.5" height="40.5"><defs><style>.cls-12,.cls-9{fill-rule:evenodd}.cls-9{fill:#6bb745}.cls-12{fill:#f48d1c}</style></defs><path fill="#f8f8f8" d="M0 0h67.5v40.5H0z"/><g id="Mask_Group_34" data-name="Mask Group 34"><g id="ebay"><path id="Path_153" data-name="Path 153" d="M1198.34 5077.23c-5.26 0-5.47 4.14-5.4 5.19 0 0-.28 4.77 5.26 4.77 4.77 0 4.98-3.02 4.98-3.02h-2.17s-.42 1.62-2.81 1.55a3.121 3.121 0 01-3.15-3.02h8.41c.07 0 .7-5.47-5.12-5.47zm-3.22 4.07a2.908 2.908 0 013.15-2.67 2.738 2.738 0 013.02 2.67h-6.17z" transform="translate(-1181.25 -5061.75)" fill-rule="evenodd" fill="#ff6c6c"/><path id="Path_154" data-name="Path 154" d="M1192.94 5081.79s-.28 5.4 5.26 5.4c4.77 0 4.98-3.02 4.98-3.02h-2.17s-.42 1.62-2.81 1.55a3.121 3.121 0 01-3.15-3.02h8.41s.63-5.47-5.19-5.47m-3.15 4.07a2.908 2.908 0 013.15-2.67 2.738 2.738 0 013.02 2.67h-6.17z" transform="translate(-1181.25 -5061.75)" fill="#ee3b3f" fill-rule="evenodd"/><path id="Path_155" data-name="Path 155" d="M1209.56 5077.3a4.233 4.233 0 00-3.64 1.54v-5.26h-2.39l.07 11.16s0 1.47-.07 2.17h2.04l.07-1.26s.98 1.54 3.78 1.54a4.947 4.947 0 10.14-9.89zm-.63 8.49c-3.29.07-3.29-3.51-3.29-3.51s-.14-3.44 3.29-3.51c3.37-.07 3.3 3.58 3.3 3.58s0 3.37-3.3 3.44z" transform="translate(-1181.25 -5061.75)" fill="#1992dd" fill-rule="evenodd"/><path id="Path_156" data-name="Path 156" d="M1209.56 5077.3a4.233 4.233 0 00-3.64 1.54v-5.26l-2.39 2.18v8.98s0 1.47-.07 2.17h2.04l.07-1.26s.98 1.54 3.78 1.54a4.8 4.8 0 005.12-4.91 4.725 4.725 0 00-4.91-4.98zm-.63 8.49c-3.29.07-3.29-3.51-3.29-3.51s-.14-3.44 3.29-3.51c3.37-.07 3.3 3.58 3.3 3.58s0 3.37-3.3 3.44z" transform="translate(-1181.25 -5061.75)" fill="#0468b2" fill-rule="evenodd"/><path id="Path_157" data-name="Path 157" d="M1224.15 5084.66c0-1.47.07-2.73 0-3.64-.07-1.05.07-3.72-4.49-3.93 0 0-4.34-.07-4.83 2.74h2.24s.14-1.41 2.46-1.34c2.17.07 2.52 1.12 2.52 2.46 0 0-1.82.07-2.45.07-1.13 0-4.99.14-5.34 2.52-.42 2.81 2.04 3.65 4 3.65a4.507 4.507 0 003.93-1.61l.07 1.33h1.96c0-.07-.07-.77-.07-2.25zm-5.54 1.2s-2.1 0-2.24-1.69c-.14-1.82 3.23-1.68 3.23-1.68h2.38c.07 0 .49 3.44-3.37 3.37z" transform="translate(-1181.25 -5061.75)" fill="#ffce00" fill-rule="evenodd"/><path id="Path_158" data-name="Path 158" d="M1215.04 5079.9h2.03s.14-1.41 2.46-1.34c2.17.07 2.52 1.12 2.52 2.46 0 0-1.82.07-2.45.07-1.13 0-4.99.14-5.34 2.52-.42 2.81 2.04 3.65 4 3.65a4.507 4.507 0 003.93-1.61l.07 1.33h1.96s-.07-.7-.07-2.17.07-2.74 0-3.65c-.07-1.05.14-3.72-4.42-3.93m-1.12 8.63s-2.1 0-2.24-1.69c-.14-1.82 3.23-1.68 3.23-1.68h2.38c.07 0 .49 3.44-3.37 3.37z" transform="translate(-1181.25 -5061.75)" fill="#f7ab1b" fill-rule="evenodd"/><path id="Path_159" data-name="Path 159" d="M1223.03 5077.79h2.46l3.57 7.16 3.58-7.16h2.25l-6.53 12.63h-2.38l1.89-3.51z" transform="translate(-1181.25 -5061.75)" fill="#85dd52" fill-rule="evenodd"/><path id="Path_160" data-name="Path 160" class="cls-9" d="M1224.01 5079.61l1.48-1.82 3.57 7.09 3.58-7.09h2.25l-6.53 12.63h-2.38l1.89-3.58z" transform="translate(-1181.25 -5061.75)"/><path id="Path_161" data-name="Path 161" class="cls-9" d="M1235.66 5078.14v-.28h-.07v-.07h.07v-.14h.14v.14h.14v.07h-.14v.28c0 .07 0 .07.07.07h.07v.07h-.14c-.07.07-.14 0-.14-.14z" transform="translate(-1181.25 -5061.75)"/><path id="Path_162" data-name="Path 162" class="cls-9" d="M1236.15 5077.79h.14v.07a.2.2 0 01.21-.07.35.35 0 00.42 0 .186.186 0 01.21.21v.35h-.14v-.28a.14.14 0 00-.28 0v.28h-.14v-.28a.14.14 0 10-.28 0v.28h-.14v-.56z" transform="translate(-1181.25 -5061.75)"/><path id="Path_163" data-name="Path 163" d="M1201.08 5080.18a2.79 2.79 0 01.28 1.12h-6.24a2.662 2.662 0 011.4-2.25 5.736 5.736 0 00-3.51 1.97 5.8 5.8 0 00-.14 1.4s-.28 4.77 5.26 4.77c4.07 0 4.84-2.17 4.98-2.81v-.21h-2.17s-.42 1.62-2.81 1.55a3.1 3.1 0 01-3.08-3.02h7.78a8.208 8.208 0 00-1.75-2.52z" transform="translate(-1181.25 -5061.75)" fill="#c60c1e" fill-rule="evenodd"/><path id="Path_164" data-name="Path 164" d="M1213.98 5084.52a5.813 5.813 0 00-2.38-4.34 4.237 4.237 0 01.56 2.24s.07 3.44-3.3 3.44c-3.29.07-3.29-3.51-3.29-3.51a3.539 3.539 0 011.75-3.16 5.684 5.684 0 00-3.86 2.39v3.3s0 1.47-.07 2.17h2.04l.07-1.26s.98 1.54 3.78 1.54c2.11-.14 3.93-1.05 4.7-2.81z" transform="translate(-1181.25 -5061.75)" fill="#064c91" fill-rule="evenodd"/><path id="Path_165" data-name="Path 165" class="cls-12" d="M1224.15 5084.66v-3.08a5.766 5.766 0 00-2.52-2.11 2.249 2.249 0 01.35 1.55s-1.82.07-2.45.07c-1.13 0-4.99.14-5.34 2.52-.42 2.81 2.04 3.65 4 3.65a4.507 4.507 0 003.93-1.61l.07 1.33h1.96a20.84 20.84 0 000-2.32zm-5.54 1.2s-2.1 0-2.24-1.69c-.14-1.82 3.23-1.68 3.23-1.68h2.38c.07 0 .49 3.44-3.37 3.37z" transform="translate(-1181.25 -5061.75)"/><path id="Path_166" data-name="Path 166" class="cls-12" d="M1216.02 5079.9h1.12a2.2 2.2 0 01.49-.78c-.63.14-1.19.78-1.61.78z" transform="translate(-1181.25 -5061.75)"/><path id="Path_167" data-name="Path 167" d="M1228.36 5090.42l4.56-8.84a9.353 9.353 0 00-1.4-1.47l-2.46 4.7-2.8-5.41a5.856 5.856 0 00-1.69 1.2l3.3 6.31-1.89 3.51h2.38z" transform="translate(-1181.25 -5061.75)" fill="#4a9e19" fill-rule="evenodd"/></g></g></svg>