<svg xmlns="http://www.w3.org/2000/svg" width="247.5" height="128.4"><defs><style>.cls-2{fill-rule:evenodd;fill:#fff}</style></defs><path id="Path_185" data-name="Path 185" d="M1060.89 4813.41s-9.61 6.77-9.97 24.39c-.26 13.03 6.38 19.44 9.87 21.9-5.13-45.54 39.61-104.74 82.25-78.97 22.55 13.64 14.31 39.77 1.11 35.36a17.865 17.865 0 01-4.65-2.27l-2.37 16.28 9.65-5.96a17.511 17.511 0 00.48 10.76c-3.14-1.58-7.42-2.25-10.73-.74l-2.57 17.62c1.26 1.87 2.94 3.86 4.51 4.13 3.08.54 4.55-2.46 6.78-8.47s3.24-9.1 5.24-9.87a14.434 14.434 0 015.09-.54s-3.7 7.56-3.7 13.18 1.05 7.38 1.05 7.38-6.29.63-12.46 1.1-20.96 3.16-20.96 3.16.78-1.55 2.93-5.78c.36-.7.71-1.39 1.05-2.05l6.26-42.61a11.443 11.443 0 00-.45-2.49c-.67-1.6-3.25-2.33-3.25-2.33a22.539 22.539 0 00.86-2.41l3.99-.57.02-.13 10.31-1.52-1.48 10.13c12.01-3.12 11.95-20.13.54-27.2-35.09-21.74-78.99 37.53-70.19 81.21a17.766 17.766 0 001.12 3.21 39.448 39.448 0 002.67 4.63c-17.45 3.95-33.36-15.19-31.66-29.76-3.6 4.87-7.91 11.62-8.71 22.07-.95 12.34 5.83 14.38 5.83 14.38l-2.71.27s-13.78.12-14.25-7.82c-4.24 7.16-16.73 7-16.73 7s9.39-3.13 10.54-19.76c1.15-16.54 2.92-32.28-10.54-43.49 0 0 8.57 1.48 15.32-2.47s6.75-4.61 10.21-5.1a5.181 5.181 0 015.11 2.3s-7.74-1.48-8.57 15.81c-.57 11.99-.9 25.16-2.31 34.75 3.81-8.78 10.22-19.19 13.25-25.16 4.34-8.54 3.91-12.92 2.93-14.56s-2.84-2.29-2.51-3.17c.26-.7 16.72-4.66 21.8-5.82zm-40.51 24.06l1.27-1.45 1.44 1.26-1.26 1.45zm205.11 30.44c-15.02 15.02-37.21 8.96-39.7-9.39-.93-6.91 2.42-20.93 6.81-25.67-10.74-.82-14.92 16.92-14.06 25.43 2.24 22.16 30.7 30.37 46.95 9.63zm-54.23-36.92c2.48-4.14 6.62-5.93 12.22-3.73l-4 6.79c-4.79-3.24-7.85.65-9.37 4.86-.98 6.23-2.45 12.44 6.49 13.39.18.02.56-.14.55.05v2.43a208.921 208.921 0 00-22.84 2.85 59.023 59.023 0 002.61-6.21c.74-2.06 1.71-5.92 2.43-8.95l4.72-31.83a27.8 27.8 0 00-.71-5.76c-.67-1.59-3.25-2.32-3.25-2.32a21.971 21.971 0 00.86-2.42l4.76-.68v-.01l7.26-1.07.05-.13 20.52-2.4c.2-.02-6.67 13.17-7.24 13.63s-2.05-.06-3.36-2.74-.69-4.96-2-6.44-2.62-1.6-4.05-.46a8.167 8.167 0 00-1.44 2.07zm66.39-39.41c-3.66-3.4-11.48-4.59-15.68-1.13-2.07 1.72-3.78 4.92-4.13 10.73-1.07 17.52 25.2 35.04 19.66 57.12-3.59 14.35-14.83 21.33-28.17 23.73 16.29 1.39 33.47-5.81 38.42-23.23 6.46-22.67-20.55-45.31-21.11-59.49-.3-7.49 3.87-8.27 6.26-6.09s2.69 7.96 4.48 11.39 6.56 2.97 6.56 2.97-.75-10.93 0-14.52a10.719 10.719 0 013.58-5.77s-8.5-.5-9.87 4.29zm-34.81 54.26a6.416 6.416 0 003.3 2.49c3.08.54 4.54-2.46 6.78-8.47s3.23-9.09 5.24-9.87a14.263 14.263 0 015.08-.53s-3.7 7.55-3.7 13.17 1.06 7.38 1.06 7.38-6.3.64-12.46 1.1-20.96 3.16-20.96 3.16.77-1.54 2.93-5.78c1.15-2.25 2.27-4.42 3.07-5.95l5.92-40.23a8.562 8.562 0 00-.42-1.78 14.687 14.687 0 00-1.99-3.09l-.02-1.62a27.8 27.8 0 003.44-.39v-.05l10.32-1.52-.01.06c2.47-.42 4.91-.84 4.88-.87l.12 1.77a5.546 5.546 0 00-4.47 2.98 30.172 30.172 0 00-1.65 3.74zm-117.4-35.48l4.54-.64v-.05l10.31-1.52-3.65 25.34a25.21 25.21 0 0110.68 11.4l5.71-38.79 10.31-1.52-8.35 57.84-10.45 1.38 1.76-11.96a18.7 18.7 0 00-2.04-6.09 17.325 17.325 0 00-8.38-6.99l-3.93 27.23-6.35.84v.04l-9.62 1.47.32-1.56a5.719 5.719 0 004.23-3.38c.65-1.65 2.19-7.68 3.41-12.63l1.98-13.47c-5.65.73-10.24 4.42-10.08 11.82-2.94-5.59-1.86-10.88 0-13.64 2.37-3.52 6.5-5.07 11.06-4.86l1.58-10.73a22.74 22.74 0 00-.65-4.79c-.67-1.59-3.25-2.32-3.25-2.32a21.971 21.971 0 00.86-2.42zm-61.09 8.74c-1.31 2.44-5.38 3.6-7.98 3.27a22.9 22.9 0 014.97 12.43s1.77-12.37 3.01-15.7z" transform="translate(-1001.25 -4770.91)" fill-rule="evenodd" fill="#004cff"/><path id="Path_186" data-name="Path 186" class="cls-2" d="M1172.12 4876.87a5.086 5.086 0 01-1.44 2.56 4.472 4.472 0 01-2.58 1.23 2.058 2.058 0 01-2.01-.66 2.755 2.755 0 01-.29-2.56l.24-.92a.48.48 0 01.3-.4c.12-.02.48-.08 1.06-.18s.93-.16 1.06-.18.15.13.07.43l-.21.87c-.21.84-.07 1.23.41 1.16a1.107 1.107 0 00.83-.94l.28-.99a1.511 1.511 0 00-.64-1.23c-.85-.88-1.31-1.37-1.39-1.49a2.141 2.141 0 01-.5-1.85l.37-1.5a5.668 5.668 0 011.42-2.66 4.717 4.717 0 012.76-1.41 1.856 1.856 0 011.92.58 2.553 2.553 0 01.2 2.13l-.43 1.74a.355.355 0 01-.27.31 18.138 18.138 0 01-2.03.28c-.16.03-.22-.05-.18-.23.05-.26.18-.74.38-1.41a1.333 1.333 0 00.04-.71.283.283 0 00-.33-.3 1.379 1.379 0 00-1.01 1.26l-.22.91a1.769 1.769 0 00.6 1.42c.47.53.94 1.07 1.41 1.6a2.4 2.4 0 01.48 1.93zm-18.15 5.38a.251.251 0 01-.17.33s-.86.11-2.56.35c-.1.01-.15-.06-.16-.22-.03-.51-.07-1.73-.12-3.65a.628.628 0 00-.03-.29 1.358 1.358 0 00-.12.31c-.25.84-.57 2.11-.94 3.78a.331.331 0 01-.27.3c-1.22.16-1.83.25-1.83.25-.16.02-.21-.08-.16-.3l3.35-13.68a.32.32 0 01.25-.27c.5-.08 1.17-.17 2.01-.28.12 0 .16.07.12.23q-.87 3.2-.99 3.75c-.02.09-.01.12.03.12a.362.362 0 00.13-.17c.37-.76 1-2.04 1.91-3.85a.436.436 0 01.31-.28c.28-.03.68-.09 1.2-.17.62-.09.95-.13.97-.13.17-.03.24.04.2.21a.76.76 0 01-.04.11c-.39.54-1.15 1.68-2.28 3.43-1.16 1.81-1.74 2.74-1.73 2.81q.3 2.82.92 7.31zm-17.52 2.7c0 .07-.07.11-.19.13-.17.02-.5.07-.97.13s-.87.11-1.22.15a1.389 1.389 0 01-.15-1.08c.02-.56.05-1.04.08-1.44.01-.08-.05-.11-.17-.09-.48.06-.72.1-.72.1a.247.247 0 00-.2.14c-.29.73-.64 1.58-1.06 2.54a.345.345 0 01-.2.19l-2.29.31c-.2.03-.26-.03-.19-.18 1.01-2.45 2.02-4.92 3.03-7.39 1.97-4.74 3.04-7.14 3.2-7.17.68-.13 1.35-.22 2.01-.28q.21-.015-.33 6.78c-.21 2.39-.41 4.78-.63 7.16zm-2.04-4.43a9.95 9.95 0 00.14-1.95 2.534 2.534 0 00-.44.89c-.14.38-.28.77-.42 1.16-.03.04.03.06.15.06a1.982 1.982 0 00.36-.04.249.249 0 00.21-.12zm-16.42 6.82a.384.384 0 01-.35.27 40.984 40.984 0 01-4.68.62c-.14 0-.18-.1-.13-.31l3.37-13.75a.3.3 0 01.26-.22c.95-.14 2.5-.35 4.62-.62.2-.03.28.03.25.17-.05.19-.13.51-.23.95-.15.56-.24.91-.28 1.05a.287.287 0 01-.26.25c-.49.07-1.2.17-2.12.29a.354.354 0 00-.33.24c-.01.05-.12.47-.32 1.25-.17.65-.29 1.15-.36 1.47a.142.142 0 00.16.2 13.882 13.882 0 001.72-.22c.15-.02.22.04.2.18-.04.21-.14.6-.31 1.18-.19.67-.29 1.07-.32 1.19a.317.317 0 01-.27.27s-.56.08-1.67.23a.4.4 0 00-.29.29 26.258 26.258 0 00-.72 2.78c-.03.15.06.22.28.21.48-.07 1.16-.16 2.04-.28.2-.03.28.03.24.19-.23.95-.4 1.66-.5 2.12zm-16.27 2.11a.375.375 0 01-.29.43c-.24.06-.96.15-2.17.28-.14.02-.18-.12-.13-.44.14-.79.32-1.67.56-2.64q.66-2.655-.33-2.52a.362.362 0 00-.23.03.6.6 0 00-.22.4c-.45 1.84-.86 3.46-1.21 4.86a.608.608 0 01-.32.51 12.138 12.138 0 01-1.93.3c-.14 0-.17-.16-.09-.49l3.32-13.53a.438.438 0 01.41-.36c.69-.1 1.62-.23 2.81-.4a3.147 3.147 0 011.85.18.98.98 0 01.55 1.23l-.86 3.47a3.392 3.392 0 01-.91 1.55 3.236 3.236 0 01-.98.71.309.309 0 00-.18.13.185.185 0 00.13.07 1.274 1.274 0 01.64.33c.46.4.47 1.53.02 3.38a11.706 11.706 0 00-.44 2.52zm-.05-10.36c.19-.78.01-1.11-.55-1a2.2 2.2 0 01-.28.07.368.368 0 00-.25.33s-.25 1.02-.75 3.08c-.08.32-.04.48.13.47a1.115 1.115 0 00.23-.03.887.887 0 00.65-.46 10.185 10.185 0 00.82-2.46zm-13.87-.95a67.7 67.7 0 01-.46 1.8.4.4 0 01-.34.23c-.56.08-1.33.19-2.3.34a.34.34 0 00-.28.27l-.76 3.1q-.06.27.12.24c.27-.03.9-.12 1.89-.29.17-.03.25.03.22.19a18.156 18.156 0 01-.56 2.3.245.245 0 01-.23.2q-.675.075-1.92.27a.354.354 0 00-.28.26c-.12.41-.33 1.23-.62 2.45-.42 1.72-.64 2.62-.66 2.69a.364.364 0 01-.31.28 13.362 13.362 0 01-2.37.34c-.16.01-.22-.06-.19-.21l3.35-13.66a.41.41 0 01.37-.3c.57-.09 1.47-.21 2.69-.37 1.61-.21 2.42-.32 2.42-.32.18-.02.26.04.22.19z" transform="translate(-1001.25 -4770.91)"/><path id="Path_187" data-name="Path 187" class="cls-2" d="M1073.51 4883.32l-1.22 2.9-69.82 8.38s70.88-11.59 71.04-11.28zm.91-4.42l-1.22 2.89-69.82 8.39s70.89-11.59 71.04-11.28zm-2.13 9.14l-1.22 2.9-69.82 8.38s70.89-11.58 71.04-11.28z" transform="translate(-1001.25 -4770.91)"/><path id="Path_188" data-name="Path 188" class="cls-2" d="M1022.34 4785.8l-2.74 18.45c-.62 1.56-3.69 1.51-3.61-.53l2.56-17.29c-2.97 0-5.77-1.31-8-4.89l3.1-1.93c3.21 5.16 8.93 2.69 13.62-.23 1.33-.82 2.52-1.64 3.59-2.38.23-.16.46-.31 1.09-.74a43.985 43.985 0 016.12-3.61 16.7 16.7 0 016.72-1.73c6.09-.12 8.91 3.85 10.18 7.02a8.847 8.847 0 00-3.05 2.28c-.71-2.27-2.54-5.75-7.07-5.66a13.31 13.31 0 00-5.26 1.41 41.4 41.4 0 00-5.6 3.3l-1.06.73c-1.15.79-2.44 1.68-3.73 2.48a29.9 29.9 0 01-6.86 3.32zm36.1-6.4a6.689 6.689 0 015.03 4.22 14.025 14.025 0 01.93 7.54v.01a14.042 14.042 0 01-2.92 7.03 6.615 6.615 0 01-5.96 2.71 6.685 6.685 0 01-5.04-4.21 14.148 14.148 0 01-.92-7.55l.01-.06a14.065 14.065 0 012.9-6.97 6.674 6.674 0 015.97-2.72zm1.7 5.72a3.183 3.183 0 00-2.18-2.1h-.01a3.217 3.217 0 00-2.68 1.44 10.347 10.347 0 00-2.1 5.18v.05a10.4 10.4 0 00.64 5.51 3.216 3.216 0 002.19 2.1 3.193 3.193 0 002.68-1.45 10.309 10.309 0 002.1-5.17 10.3 10.3 0 00-.64-5.56zm-30.03 2.98l-1.62 8.38 5.68-7.71 1.75-2.22 1.3 2.52 2.97 5.79 4.21-14.23c1.2-2.57 4.07-1.06 3.5 1.03l-4.27 14.43c-.63 2.14-1.09 6.35-3.72 6.35l-4.64-9.19c-3.91 4.93-5.63 9.36-11.58 10.88l2.82-16.62c1.29-3.32 4.09-1.43 3.6.59z" transform="translate(-1001.25 -4770.91)"/></svg>