<svg xmlns="http://www.w3.org/2000/svg" width="157.5" height="81.719"><defs><style>.cls-2{fill-rule:evenodd;fill:#262626}</style></defs><path id="Path_185" data-name="Path 185" d="M229.2 143.459s-6.116 4.305-6.343 15.521c-.168 8.288 4.058 12.37 6.275 13.935-3.26-28.984 25.209-66.656 52.347-50.251 14.348 8.676 9.106 25.3.7 22.5a11.288 11.288 0 01-2.958-1.45l-1.512 10.362 6.142-3.794a11.2 11.2 0 00.305 6.849 8.294 8.294 0 00-6.825-.471l-1.631 11.213c.8 1.193 1.868 2.456 2.869 2.631 1.961.343 2.894-1.569 4.315-5.393s2.059-5.787 3.334-6.277a9.138 9.138 0 013.237-.343s-2.354 4.8-2.354 8.385.67 4.695.67 4.695-4 .4-7.926.7-13.339 2.011-13.339 2.011.491-.981 1.864-3.678c.225-.442.449-.88.666-1.3l3.986-27.115a7.087 7.087 0 00-.291-1.589 3.574 3.574 0 00-2.064-1.478 13.252 13.252 0 00.545-1.538l2.541-.362.012-.082 6.562-.969-.942 6.451c7.64-1.985 7.6-12.813.34-17.312-22.326-13.836-50.266 23.884-44.663 51.682a11.281 11.281 0 00.71 2.043 25.572 25.572 0 001.7 2.945c-11.106 2.513-21.228-9.664-20.144-18.94a25.793 25.793 0 00-5.545 14.047c-.6 7.853 3.71 9.148 3.71 9.148l-1.726.172s-8.768.078-9.065-4.973c-2.7 4.553-10.649 4.455-10.649 4.455s5.975-1.992 6.708-12.579c.729-10.524 1.86-20.537-6.708-27.672 0 0 5.45.943 9.748-1.572s4.3-2.935 6.5-3.25a3.3 3.3 0 013.25 1.468s-4.926-.944-5.452 10.063c-.362 7.626-.574 16.007-1.473 22.109 2.429-5.588 6.507-12.208 8.437-16.007 2.76-5.437 2.487-8.225 1.862-9.268s-1.808-1.459-1.6-2.015c.175-.45 10.644-2.966 13.875-3.707zm-25.778 15.306l.8-.921.921.8-.8.92zm130.52 19.376c-9.555 9.555-23.676 5.7-25.259-5.978-.6-4.394 1.535-13.318 4.33-16.337-6.833-.518-9.492 10.77-8.947 16.182 1.434 14.104 19.543 19.332 29.88 6.133zm-34.505-23.494c1.575-2.638 4.207-3.774 7.772-2.376l-2.546 4.322c-3.049-2.064-4.992.411-5.959 3.094-.626 3.961-1.558 7.916 4.129 8.517.114.011.352-.086.352.034v1.543a132.755 132.755 0 00-14.532 1.815 37.132 37.132 0 001.659-3.951c.469-1.309 1.088-3.769 1.547-5.7l3-20.252a17.59 17.59 0 00-.456-3.666 3.576 3.576 0 00-2.064-1.477 13.756 13.756 0 00.546-1.537l3.028-.434v-.009l4.617-.681.031-.082 13.061-1.524c.124-.015-4.245 8.381-4.608 8.671s-1.305-.037-2.14-1.742-.435-3.156-1.27-4.1a1.656 1.656 0 00-2.576-.291 5.011 5.011 0 00-.92 1.316zm42.242-25.084c-2.324-2.163-7.3-2.922-9.974-.714-1.32 1.089-2.406 3.13-2.631 6.825-.681 11.146 16.035 22.3 12.514 36.349-2.287 9.131-9.438 13.573-17.926 15.1 10.367.888 21.3-3.7 24.45-14.783 4.106-14.425-13.079-28.831-13.439-37.858-.189-4.768 2.468-5.264 3.987-3.874s1.708 5.065 2.847 7.25 4.177 1.888 4.177 1.888-.475-6.953 0-9.237a6.861 6.861 0 012.278-3.675s-5.403-.315-6.279 2.729zM319.534 164.1a4.113 4.113 0 002.1 1.585c1.962.344 2.894-1.569 4.315-5.394s2.06-5.785 3.335-6.276a9.157 9.157 0 013.236-.343s-2.354 4.805-2.354 8.385.669 4.695.669 4.695-4 .4-7.926.7-13.338 2.01-13.338 2.01.492-.981 1.864-3.678a397.05 397.05 0 011.955-3.785l3.764-25.6a5.351 5.351 0 00-.269-1.133 9.258 9.258 0 00-1.26-1.965l-.017-1.033a17.91 17.91 0 002.189-.244v-.033l6.562-.969-.006.038c1.573-.265 3.127-.534 3.109-.551l.073 1.128a3.524 3.524 0 00-2.841 1.894 17.834 17.834 0 00-1.049 2.381zm-74.708-22.577l2.886-.412v-.027l6.562-.969-2.326 16.125a16.056 16.056 0 016.8 7.255l3.629-24.684 6.561-.969-5.308 36.8-6.65.881 1.118-7.61a12.064 12.064 0 00-1.3-3.879 11.046 11.046 0 00-5.335-4.444l-2.5 17.325-4.04.535v.025l-6.119.94.2-1a3.634 3.634 0 002.692-2.148c.415-1.052 1.394-4.89 2.171-8.041l1.259-8.567c-3.6.465-6.519 2.809-6.412 7.517a8.6 8.6 0 010-8.679c1.51-2.241 4.134-3.222 7.04-3.093l1-6.828a14.087 14.087 0 00-.415-3.045 3.574 3.574 0 00-2.064-1.477 13.507 13.507 0 00.551-1.535zm-38.876 5.557c-.835 1.557-3.42 2.3-5.081 2.081a14.6 14.6 0 013.166 7.911s1.123-7.872 1.915-9.996z" transform="translate(-191.25 -116.406)" fill-rule="evenodd" fill="#004cff"/><path id="Path_186" data-name="Path 186" class="cls-2" d="M299.985 183.842a3.28 3.28 0 01-.914 1.63 2.874 2.874 0 01-1.644.778 1.31 1.31 0 01-1.28-.418 1.766 1.766 0 01-.183-1.631c.028-.119.08-.313.154-.583a.3.3 0 01.188-.253c.079-.011.3-.05.674-.115s.6-.1.675-.114.094.08.046.274l-.134.549q-.2.805.263.743a.707.707 0 00.526-.6l.178-.63a.953.953 0 00-.4-.778q-.813-.84-.89-.948a1.378 1.378 0 01-.316-1.179l.233-.952a3.61 3.61 0 01.908-1.695 3.022 3.022 0 011.754-.9 1.182 1.182 0 011.223.372 1.611 1.611 0 01.124 1.357l-.271 1.108a.235.235 0 01-.175.2 12.552 12.552 0 01-1.289.178c-.1.014-.141-.035-.113-.147q.051-.255.244-.9a.926.926 0 00.024-.453.188.188 0 00-.209-.193.887.887 0 00-.644.8l-.143.581a1.125 1.125 0 00.387.9l.892 1.023a1.505 1.505 0 01.306 1.224zm-11.552 3.421a.157.157 0 01-.108.21l-1.627.224c-.064.009-.1-.036-.1-.137q-.027-.492-.072-2.327a.338.338 0 00-.024-.18.752.752 0 00-.07.193c-.163.538-.364 1.343-.6 2.409a.208.208 0 01-.171.186l-1.164.16c-.1.015-.137-.049-.1-.191l2.134-8.7a.2.2 0 01.157-.172q.476-.077 1.278-.177c.077 0 .1.044.08.141q-.555 2.035-.633 2.392c-.012.052-.006.076.017.073a.225.225 0 00.084-.109q.351-.728 1.217-2.449a.292.292 0 01.194-.18c.179-.017.436-.053.77-.106l.614-.085c.111-.015.153.03.128.134a.251.251 0 01-.028.069q-.368.514-1.452 2.187c-.739 1.148-1.1 1.741-1.1 1.784q.189 1.8.576 4.651zm-11.145 1.721a.113.113 0 01-.123.081l-.615.085q-.447.051-.779.1a.889.889 0 01-.094-.691c.01-.354.029-.659.053-.916q.009-.076-.111-.06l-.461.064a.16.16 0 00-.127.094c-.182.464-.406 1-.67 1.615a.228.228 0 01-.131.117l-1.457.2c-.126.018-.166-.021-.12-.113q.961-2.346 1.93-4.7a36.646 36.646 0 012.035-4.566c.43-.08.857-.14 1.277-.176a25.074 25.074 0 01-.211 4.314q-.192 2.273-.396 4.552zm-1.3-2.819a6.245 6.245 0 00.089-1.245 1.643 1.643 0 00-.277.568l-.273.742c-.013.023.02.034.1.034a1.011 1.011 0 00.229-.026.158.158 0 00.132-.073zm-10.449 4.341a.252.252 0 01-.225.172 25.765 25.765 0 01-2.978.389c-.085 0-.112-.061-.077-.195l2.143-8.747a.177.177 0 01.161-.141q.915-.135 2.944-.4c.127-.017.178.019.157.109l-.148.6a85.51 85.51 0 00-.176.668.19.19 0 01-.165.159l-1.35.185a.217.217 0 00-.207.148c-.008.037-.077.3-.207.8-.11.419-.187.734-.23.941a.092.092 0 00.105.127 9.458 9.458 0 001.09-.14c.1-.014.145.024.13.112q-.037.2-.195.752-.18.642-.208.754a.2.2 0 01-.168.174l-1.065.147a.248.248 0 00-.183.186 15.742 15.742 0 00-.456 1.765c-.023.095.033.142.172.137l1.3-.18q.189-.025.153.12-.22.911-.317 1.358zm-10.356 1.341a.238.238 0 01-.181.274c-.154.036-.615.095-1.382.18-.087.011-.114-.082-.081-.281.085-.5.205-1.063.356-1.683q.414-1.692-.212-1.6a.244.244 0 00-.143.02.372.372 0 00-.143.258q-.43 1.758-.77 3.093a.375.375 0 01-.2.319 7.192 7.192 0 01-1.225.191c-.092 0-.113-.1-.061-.306l2.11-8.611a.288.288 0 01.265-.231q.653-.092 1.788-.257a2.013 2.013 0 011.179.118.63.63 0 01.35.784l-.552 2.2a2.079 2.079 0 01-.574.986 2.026 2.026 0 01-.626.454.2.2 0 00-.112.081c0 .014.024.029.082.043a.805.805 0 01.405.215q.444.38.01 2.147a8.049 8.049 0 00-.283 1.606zm-.03-6.6q.181-.739-.347-.633a1.449 1.449 0 01-.184.046.227.227 0 00-.153.205l-.481 1.962q-.075.311.087.3a.5.5 0 00.141-.019.568.568 0 00.417-.3 6.505 6.505 0 00.52-1.557zm-8.827-.6q-.183.75-.291 1.144a.263.263 0 01-.22.149q-.532.075-1.459.212a.221.221 0 00-.18.177l-.483 1.97c-.028.113 0 .163.077.152.172-.016.571-.079 1.2-.187.111-.016.158.025.142.121a12.657 12.657 0 01-.36 1.467.159.159 0 01-.145.128q-.43.049-1.222.169a.229.229 0 00-.176.165q-.12.394-.393 1.558l-.42 1.713a.237.237 0 01-.2.18 8.31 8.31 0 01-1.508.218.1.1 0 01-.115-.135s.71-2.9 2.131-8.69a.249.249 0 01.23-.195q.548-.086 1.717-.236l1.536-.2c.113-.015.163.026.139.123z" transform="translate(-191.25 -116.406)"/><path id="Path_187" data-name="Path 187" class="cls-2" d="M237.232 187.944l-.776 1.843-44.431 5.336s45.11-7.373 45.207-7.179zm.582-2.813l-.776 1.843-44.431 5.336s45.11-7.373 45.207-7.179zm-1.358 5.82l-.776 1.849-44.431 5.335s45.109-7.377 45.207-7.184z" transform="translate(-191.25 -116.406)"/><path id="Path_188" data-name="Path 188" class="cls-2" d="M204.669 125.89l-1.741 11.736c-.4.993-2.352.963-2.3-.335l1.632-11.006a5.78 5.78 0 01-5.095-3.111l1.974-1.228c2.045 3.286 5.685 1.715 8.669-.142.845-.527 1.6-1.049 2.286-1.518.148-.1.289-.2.693-.473a28.6 28.6 0 013.89-2.291 10.717 10.717 0 014.283-1.106 6.53 6.53 0 016.473 4.471 5.554 5.554 0 00-1.94 1.451 4.568 4.568 0 00-4.5-3.6 8.489 8.489 0 00-3.345.9 26.193 26.193 0 00-3.565 2.1l-.674.464c-.733.5-1.552 1.067-2.376 1.58a19.163 19.163 0 01-4.364 2.108zm22.975-4.074a4.243 4.243 0 013.2 2.686 8.917 8.917 0 01.589 4.8 8.946 8.946 0 01-1.854 4.475 4.233 4.233 0 01-3.8 1.727 4.239 4.239 0 01-3.2-2.684 8.93 8.93 0 01-.588-4.8l.005-.037a8.923 8.923 0 011.848-4.438 4.241 4.241 0 013.8-1.729zm1.085 3.636a2.035 2.035 0 00-1.393-1.339 2.039 2.039 0 00-1.706.919 6.576 6.576 0 00-1.336 3.293v.036a6.585 6.585 0 00.411 3.5 2.039 2.039 0 001.393 1.339 2.042 2.042 0 001.707-.919 6.572 6.572 0 001.336-3.292 6.6 6.6 0 00-.413-3.533zm-19.111 1.893l-1.032 5.337 3.614-4.909 1.116-1.413.824 1.6 1.892 3.683 2.68-9.053a1.161 1.161 0 112.228.654l-2.718 9.185c-.4 1.361-.7 4.04-2.366 4.04l-2.955-5.851c-2.487 3.143-3.585 5.957-7.368 6.924l1.793-10.573c.821-2.106 2.601-.901 2.291.379z" transform="translate(-191.25 -116.406)"/></svg>