<svg xmlns="http://www.w3.org/2000/svg" width="67.5" height="40.5"><defs><style>.cls-8,.cls-9{fill-rule:evenodd}.cls-8{fill:#fff}.cls-9{fill:#dce5e5}</style></defs><path fill="#f8f8f8" d="M0 0h67.5v40.5H0z"/><g id="Mask_Group_33" data-name="Mask Group 33"><g id="mastercard"><path id="Path_127" data-name="Path 127" d="M1147.13 5082a13.28 13.28 0 01-26.56 0 13.28 13.28 0 1126.56 0z" transform="translate(-1091.25 -5061.75)" fill-rule="evenodd" fill="#ffb600"/><path id="Path_128" data-name="Path 128" d="M1133.85 5068.72a13.311 13.311 0 0113.28 13.28 13.28 13.28 0 01-26.56 0" transform="translate(-1091.25 -5061.75)" fill="#f7981d" fill-rule="evenodd"/><path id="Path_129" data-name="Path 129" d="M1133.85 5068.72a13.311 13.311 0 0113.28 13.28 13.266 13.266 0 01-13.28 13.28" transform="translate(-1091.25 -5061.75)" fill="#ff8500" fill-rule="evenodd"/><path id="Path_130" data-name="Path 130" d="M1116.01 5068.72a13.28 13.28 0 00.14 26.56 13.47 13.47 0 008.92-3.44 13.616 13.616 0 001.33-1.41h-2.74a16.149 16.149 0 01-.98-1.33h4.71a9.555 9.555 0 00.77-1.41h-6.25a8.343 8.343 0 01-.56-1.4h7.3a14.03 14.03 0 00.7-4.22 17.043 17.043 0 00-.28-2.81h-8.15a12.69 12.69 0 01.36-1.41h7.3a8.343 8.343 0 00-.56-1.4h-6.18a15.193 15.193 0 01.77-1.41h4.71a6.38 6.38 0 00-1.06-1.4h-2.6a14.123 14.123 0 011.34-1.34 13 13 0 00-8.92-3.44c0-.14 0-.14-.07-.14z" transform="translate(-1091.25 -5061.75)" fill="#ff5050" fill-rule="evenodd"/><path id="Path_131" data-name="Path 131" d="M1102.87 5082a13.266 13.266 0 0013.28 13.28 13.47 13.47 0 008.92-3.44 13.616 13.616 0 001.33-1.41h-2.74a16.149 16.149 0 01-.98-1.33h4.71a9.555 9.555 0 00.77-1.41h-6.25a8.343 8.343 0 01-.56-1.4h7.3a14.03 14.03 0 00.7-4.22 17.043 17.043 0 00-.28-2.81h-8.15a12.69 12.69 0 01.36-1.41h7.3a8.343 8.343 0 00-.56-1.4h-6.18a15.193 15.193 0 01.77-1.41h4.71a6.38 6.38 0 00-1.06-1.4h-2.6a14.123 14.123 0 011.34-1.34 13 13 0 00-8.92-3.44h-.07" transform="translate(-1091.25 -5061.75)" fill="#e52836" fill-rule="evenodd"/><path id="Path_132" data-name="Path 132" d="M1116.15 5095.28a13.47 13.47 0 008.92-3.44 13.616 13.616 0 001.33-1.41h-2.74a16.149 16.149 0 01-.98-1.33h4.71a9.555 9.555 0 00.77-1.41h-6.25a8.343 8.343 0 01-.56-1.4h7.3a14.03 14.03 0 00.7-4.22 17.043 17.043 0 00-.28-2.81h-8.15a12.69 12.69 0 01.36-1.41h7.3a8.343 8.343 0 00-.56-1.4h-6.18a15.193 15.193 0 01.77-1.41h4.71a6.38 6.38 0 00-1.06-1.4h-2.6a14.123 14.123 0 011.34-1.34 13 13 0 00-8.92-3.44h-.07" transform="translate(-1091.25 -5061.75)" fill="#cb2026" fill-rule="evenodd"/><path id="Path_133" data-name="Path 133" class="cls-8" d="M1120.85 5085.37l.22-1.19a3.292 3.292 0 01-.36.07c-.49 0-.56-.28-.49-.42l.42-2.46h.78l.21-1.34h-.71l.15-.84h-1.41s-.84 4.64-.84 5.2a1.051 1.051 0 001.12 1.19 2.149 2.149 0 00.91-.21z" transform="translate(-1091.25 -5061.75)"/><path id="Path_134" data-name="Path 134" class="cls-8" d="M1121.35 5083.12a2.23 2.23 0 002.45 2.46 3.664 3.664 0 001.48-.21l.28-1.33a4.2 4.2 0 01-1.47.35c-1.55 0-1.27-1.13-1.27-1.13h2.88a9.076 9.076 0 00.21-1.26 1.9 1.9 0 00-2.03-2.04c-1.48-.14-2.53 1.41-2.53 3.16zm2.45-2.03c.78 0 .64.91.64.98h-1.55a1.036 1.036 0 01.91-.98z" transform="translate(-1091.25 -5061.75)"/><path id="Path_135" data-name="Path 135" class="cls-8" d="M1132.73 5085.37l.28-1.54a3.443 3.443 0 01-1.2.35 1.426 1.426 0 01-1.4-1.62c0-1.68.84-2.6 1.83-2.6a2.338 2.338 0 011.26.42l.21-1.47a4.922 4.922 0 00-1.61-.35c-1.62 0-3.24 1.4-3.24 4.07 0 1.76.85 2.95 2.53 2.95a6.43 6.43 0 001.34-.21z" transform="translate(-1091.25 -5061.75)"/><path id="Path_136" data-name="Path 136" class="cls-8" d="M1113.13 5079.82a4.983 4.983 0 00-1.69.28l-.21 1.2a4.138 4.138 0 011.54-.28c.5 0 .92.07.92.49a.536.536 0 01-.07.35h-.63c-1.2 0-2.53.49-2.53 2.11a1.338 1.338 0 001.33 1.54 2.141 2.141 0 001.48-.63l-.07.56h1.26l.56-3.86a1.662 1.662 0 00-1.89-1.76zm.28 3.16c0 .21-.14 1.34-.99 1.34a.546.546 0 01-.56-.56c0-.36.21-.85 1.27-.85a1.1 1.1 0 00.28.07z" transform="translate(-1091.25 -5061.75)"/><path id="Path_137" data-name="Path 137" class="cls-8" d="M1116.36 5085.51a1.8 1.8 0 002.11-1.82c0-1.76-1.69-1.41-1.69-2.11 0-.35.28-.49.77-.49.21 0 .99.07.99.07l.21-1.27a5.458 5.458 0 00-1.34-.14c-1.05 0-2.11.42-2.11 1.83 0 1.61 1.76 1.47 1.76 2.11 0 .42-.49.49-.84.49a4.6 4.6 0 01-1.27-.21l-.21 1.26c.07.14.42.28 1.62.28z" transform="translate(-1091.25 -5061.75)"/><path id="Path_138" data-name="Path 138" class="cls-8" d="M1144.39 5078.7l-.28 1.89a1.946 1.946 0 00-1.34-.7c-1.26 0-2.38 1.55-2.38 3.37 0 1.13.56 2.32 1.75 2.32a1.878 1.878 0 001.34-.56l-.07.49h1.4l1.06-6.74zm-.63 3.72c0 .77-.35 1.76-1.13 1.76-.49 0-.77-.42-.77-1.13 0-1.12.49-1.82 1.13-1.82.49 0 .77.35.77 1.19z" transform="translate(-1091.25 -5061.75)"/><path id="Path_139" data-name="Path 139" class="cls-8" d="M1105.47 5085.44l.84-5.06.14 5.06h.98l1.83-5.06-.77 5.06h1.47l1.13-6.74h-2.32l-1.41 4.14-.06-4.14h-2.04l-1.13 6.74h1.34z" transform="translate(-1091.25 -5061.75)"/><path id="Path_140" data-name="Path 140" class="cls-8" d="M1127.25 5085.44c.42-2.32.49-4.21 1.47-3.86a5.121 5.121 0 01.5-1.62h-.29a1.688 1.688 0 00-1.12.85l.14-.78h-1.33l-.92 5.48h1.55v-.07z" transform="translate(-1091.25 -5061.75)"/><path id="Path_141" data-name="Path 141" class="cls-8" d="M1135.96 5079.82a5.055 5.055 0 00-1.69.28l-.21 1.2a4.161 4.161 0 011.55-.28c.49 0 .91.07.91.49a.536.536 0 01-.07.35h-.63c-1.2 0-2.53.49-2.53 2.11a1.338 1.338 0 001.33 1.54 2.112 2.112 0 001.48-.63l-.07.56h1.26l.57-3.86a1.644 1.644 0 00-1.9-1.76zm.35 3.16c0 .21-.14 1.34-.98 1.34a.546.546 0 01-.56-.56c0-.36.21-.85 1.26-.85a.7.7 0 00.28.07z" transform="translate(-1091.25 -5061.75)"/><path id="Path_142" data-name="Path 142" class="cls-8" d="M1139.05 5085.44c.42-2.32.49-4.21 1.48-3.86a5.483 5.483 0 01.49-1.62h-.28a1.688 1.688 0 00-1.13.85l.14-.78h-1.33l-.91 5.48h1.54v-.07z" transform="translate(-1091.25 -5061.75)"/><path id="Path_143" data-name="Path 143" class="cls-9" d="M1118.68 5084.39a1.051 1.051 0 001.12 1.19 2.664 2.664 0 001.05-.21l.22-1.19a3.292 3.292 0 01-.36.07c-.49 0-.56-.28-.49-.42l.42-2.46h.78l.21-1.34h-.71l.15-.84" transform="translate(-1091.25 -5061.75)"/><path id="Path_144" data-name="Path 144" class="cls-9" d="M1122.05 5083.12c0 1.97.63 2.46 1.75 2.46a3.664 3.664 0 001.48-.21l.28-1.33a4.2 4.2 0 01-1.47.35c-1.55 0-1.27-1.13-1.27-1.13h2.88a9.076 9.076 0 00.21-1.26 1.9 1.9 0 00-2.03-2.04c-1.48-.14-1.83 1.41-1.83 3.16zm1.75-2.03a1.037 1.037 0 01.92.98h-1.83a1.036 1.036 0 01.91-.98z" transform="translate(-1091.25 -5061.75)"/><path id="Path_145" data-name="Path 145" class="cls-9" d="M1132.73 5085.37l.28-1.54a3.443 3.443 0 01-1.2.35 1.426 1.426 0 01-1.4-1.62c0-1.68.84-2.6 1.83-2.6a2.338 2.338 0 011.26.42l.21-1.47a4.922 4.922 0 00-1.61-.35c-1.62 0-2.53 1.4-2.53 4.07 0 1.76.14 2.95 1.82 2.95a6.43 6.43 0 001.34-.21z" transform="translate(-1091.25 -5061.75)"/><path id="Path_146" data-name="Path 146" class="cls-9" d="M1111.23 5081.37a4.138 4.138 0 011.54-.28c.5 0 .92.07.92.49a.536.536 0 01-.07.35h-.63c-1.2 0-2.53.49-2.53 2.11a1.338 1.338 0 001.33 1.54 2.141 2.141 0 001.48-.63l-.07.56h1.26l.56-3.86a1.67 1.67 0 00-1.96-1.69m1.05 3.02a2.3 2.3 0 01-1.69 1.34.546.546 0 01-.56-.56c0-.36.21-.85 1.27-.85a5.719 5.719 0 00.98.07z" transform="translate(-1091.25 -5061.75)"/><path id="Path_147" data-name="Path 147" class="cls-9" d="M1114.81 5085.37a5.973 5.973 0 001.62.14 1.8 1.8 0 002.11-1.82c0-1.76-1.69-1.41-1.69-2.11 0-.35.28-.49.77-.49.21 0 .99.07.99.07l.21-1.27a5.359 5.359 0 00-1.34-.14c-1.05 0-1.4.42-1.4 1.83 0 1.61 1.05 1.47 1.05 2.11 0 .42-.49.49-.84.49" transform="translate(-1091.25 -5061.75)"/><path id="Path_148" data-name="Path 148" class="cls-9" d="M1144.11 5080.59a1.946 1.946 0 00-1.34-.7c-1.26 0-1.68 1.55-1.68 3.37 0 1.13-.14 2.32 1.05 2.32a1.878 1.878 0 001.34-.56l-.07.49h1.4l1.06-6.74m-1.83 3.65a1.758 1.758 0 01-1.41 1.76c-.49 0-.77-.42-.77-1.13 0-1.12.49-1.82 1.13-1.82a1.07 1.07 0 011.05 1.19z" transform="translate(-1091.25 -5061.75)"/><path id="Path_149" data-name="Path 149" class="cls-9" d="M1105.47 5085.44l.84-5.06.14 5.06h.98l1.83-5.06-.77 5.06h1.47l1.13-6.74h-1.76l-1.97 4.14-.06-4.14h-.78l-2.39 6.74h1.34z" transform="translate(-1091.25 -5061.75)"/><path id="Path_150" data-name="Path 150" class="cls-9" d="M1125.77 5085.44h1.48c.42-2.32.49-4.21 1.47-3.86a5.121 5.121 0 01.5-1.62h-.29a1.688 1.688 0 00-1.12.85l.14-.78" transform="translate(-1091.25 -5061.75)"/><path id="Path_151" data-name="Path 151" class="cls-9" d="M1134.06 5081.37a4.161 4.161 0 011.55-.28c.49 0 .91.07.91.49a.536.536 0 01-.07.35h-.63c-1.2 0-2.53.49-2.53 2.11a1.338 1.338 0 001.33 1.54 2.112 2.112 0 001.48-.63l-.07.56h1.26l.57-3.86a1.678 1.678 0 00-1.97-1.69m1.05 3.02a2.3 2.3 0 01-1.68 1.34.556.556 0 01-.57-.56c0-.36.22-.85 1.27-.85a6.158 6.158 0 00.98.07z" transform="translate(-1091.25 -5061.75)"/><path id="Path_152" data-name="Path 152" class="cls-9" d="M1137.57 5085.44h1.48c.42-2.32.49-4.21 1.48-3.86a5.483 5.483 0 01.49-1.62h-.28a1.688 1.688 0 00-1.13.85l.14-.78" transform="translate(-1091.25 -5061.75)"/></g></g></svg>