<svg id="money" xmlns="http://www.w3.org/2000/svg" width="90" height="90"><defs><style>.cls-1{fill:#004cff;fill-rule:evenodd}</style></defs><path id="Path_83" data-name="Path 83" class="cls-1" d="M599.954 4024.97a1.75 1.75 0 10.515 1.24 1.762 1.762 0 00-.515-1.24z" transform="translate(-585 -3945)"/><path id="Path_84" data-name="Path 84" class="cls-1" d="M667.533 3977.16a1.746 1.746 0 10.517 1.24 1.761 1.761 0 00-.517-1.24z" transform="translate(-585 -3945)"/><path id="Path_85" data-name="Path 85" class="cls-1" d="M674.483 3945.51a1.749 1.749 0 00-1.243-.51H630a1.761 1.761 0 00-1.758 1.76v5.03l-16.661 4.46a1.757 1.757 0 00-1.243 2.15l8.635 32.23-7.471 7.47a5.265 5.265 0 00-4.352-2.3h-16.876a5.281 5.281 0 00-5.273 5.27v28.66a5.281 5.281 0 005.273 5.27h16.875a5.284 5.284 0 005.117-4l2.09 1.82a8.892 8.892 0 005.822 2.18h53.062a1.76 1.76 0 001.758-1.76v-86.48a1.767 1.767 0 00-.515-1.25zm-65.577 84.22a1.753 1.753 0 01-1.758 1.75h-16.874a1.753 1.753 0 01-1.758-1.75v-28.66a1.759 1.759 0 011.758-1.75h6.679v20.25a1.758 1.758 0 003.516 0v-20.25h6.68a1.759 1.759 0 011.757 1.75v28.66zm5.28-70.54l14.055-3.76v6.51l-1.178.32a1.755 1.755 0 00-1.067.81 1.776 1.776 0 00-.176 1.34 4.728 4.728 0 01-3.347 5.79 1.788 1.788 0 00-1.068.83 1.749 1.749 0 00-.174 1.33l6.852 25.37h-3.528l-1.818-7.11a1.792 1.792 0 00-.295-.62zm14.055 10.81v14.83l-3.206-11.87a8.187 8.187 0 003.206-2.96zm25.254 61.48h-33.317a5.333 5.333 0 01-3.512-1.31l-4.245-3.7v-24.32l7.674-7.67 1.392 5.45a1.767 1.767 0 001.7 1.32h34.563a2.46 2.46 0 110 4.92h-17.708a1.76 1.76 0 000 3.52h23.21a2.46 2.46 0 110 4.92h-23.21a1.76 1.76 0 000 3.52h19.448a2.46 2.46 0 110 4.92h-19.448a1.755 1.755 0 100 3.51H653.5a2.46 2.46 0 110 4.92zm17.987 0h-12.543a5.954 5.954 0 000-4.92h.551a88.463 88.463 0 019.738-14.41 5.942 5.942 0 00-1.179-3.56v-22.28a1.758 1.758 0 10-3.516 0v20a6.017 6.017 0 00-1.282-.14h-.058a5.9 5.9 0 00.533-2.46 5.99 5.99 0 00-5.976-5.98h-2.826a8.413 8.413 0 10-6.609 0h-9.609v-33.42a8.268 8.268 0 006.3-6.3h13.224a8.267 8.267 0 006.3 6.3v5.47a1.758 1.758 0 003.516 0v-7.04a1.761 1.761 0 00-1.758-1.76 4.736 4.736 0 01-4.733-4.73 1.761 1.761 0 00-1.758-1.76h-16.358a1.76 1.76 0 00-1.758 1.76 4.735 4.735 0 01-4.732 4.73 1.76 1.76 0 00-1.758 1.76v34.99h-3.434v-49.21h39.725v82.96zm-19.862-36.58a4.9 4.9 0 114.9-4.9 4.905 4.905 0 01-4.9 4.9z" transform="translate(-585 -3945)"/></svg>