<svg id="support" xmlns="http://www.w3.org/2000/svg" width="80.878" height="90"><defs><style>.cls-2{fill:#004cff;fill-rule:evenodd}</style></defs><circle id="Path_86" data-name="Path 86" cx="59.763" cy="71.355" r="1.765" fill="#004cff"/><path id="Path_87" data-name="Path 87" class="cls-2" d="M1013.66 4008.93l-8.35-2.79-3-6a19.252 19.252 0 005.21-10.18l.37-2.25h3.2a5.279 5.279 0 005.28-5.27v-11.07a26.369 26.369 0 10-52.738 0v11.07a5.277 5.277 0 003.516 4.97v2.06a5.283 5.283 0 005.273 5.28h1.544a19.175 19.175 0 002.949 4.56c.248.29.509.57.774.83l-3 6-8.354 2.79c-9.715 3.23-16.766 13.46-16.766 24.31a1.76 1.76 0 001.758 1.76h77.342a1.763 1.763 0 001.76-1.76c.002-10.85-7.048-21.08-16.768-24.31zm-.81-26.49a1.763 1.763 0 01-1.76 1.76h-2.68c.45-3.46.74-7.15.87-10.77v-.31h3.57v9.32zm-43.944 1.76a1.761 1.761 0 01-1.758-1.76v-9.32h3.568l.018.56v.02c.124 3.53.418 7.11.854 10.5h-2.683zm3.515 7.03a1.762 1.762 0 01-1.758-1.76v-1.76h1.442l.374 2.25c.071.42.158.85.26 1.27h-.318zm-1.754-21.62h-3.452a22.85 22.85 0 0145.565 0h-3.45a17.8 17.8 0 00-17.757-17.58h-3.147a17.8 17.8 0 00-17.759 17.58zm17.759-14.06h3.147a14.294 14.294 0 0114.247 14.31c0 .55-.01 1.03-.01 1.47v.02l-2.2-.32a28.208 28.208 0 01-15.883-7.94 1.753 1.753 0 00-1.244-.51 15.913 15.913 0 00-12.227 5.78 14.283 14.283 0 0114.17-12.81zm-12.043 35.68c-.88-2.93-1.886-11.54-2.109-17.06l2.366-3.15a12.38 12.38 0 019.149-4.91 31.721 31.721 0 0017.321 8.4l2.59.37a106.45 106.45 0 01-1.04 10.75c-.16 1.09-.28 1.79-.61 3.75-.93 5.58-5.095 10.63-10.595 12.01a13.832 13.832 0 01-15.526-6.64h3.584a5.284 5.284 0 004.97 3.51H990a5.275 5.275 0 000-10.55h-3.516a5.283 5.283 0 00-4.973 3.52h-5.127zm9.953 13.71a17.372 17.372 0 006.538.15l-3.106 3.29zm1.015 5.99l-5.575 5.9a67.171 67.171 0 01-3.936-9.13l2.094-4.19zm12.416-8.01l2.393 4.78a67.228 67.228 0 01-3.938 9.13l-5.967-5.97zm-15.042-9.93a1.761 1.761 0 011.758-1.76H990a1.76 1.76 0 010 3.52h-3.516a1.762 1.762 0 01-1.759-1.76zm-31.569 38.49c.7-8.7 6.491-16.62 14.291-19.22l7.4-2.47a70.411 70.411 0 005 10.86.094.094 0 00.01.01v.01a70.639 70.639 0 004.811 7.34l2.163 3.47h-33.675zm36.844-1.56l-2.384-3.83c-.026-.04-.054-.08-.085-.13a66.031 66.031 0 01-3.961-5.91l6.269-6.63 6.606 6.6a65.286 65.286 0 01-3.975 5.94c-.087.12.035-.06-2.47 3.96zm3.166 1.56l2.162-3.47a69.092 69.092 0 004.843-7.4c.01-.02.02-.03.03-.05v-.01a68.937 68.937 0 004.95-10.76l7.4 2.47c7.8 2.6 13.6 10.52 14.29 19.22h-33.676z" transform="translate(-949.562 -3945)"/><path id="Path_88" data-name="Path 88" class="cls-2" d="M1021.56 4024.37a17.544 17.544 0 00-4.98-6.04 1.758 1.758 0 00-2.14 2.79 13.98 13.98 0 013.98 4.82 1.755 1.755 0 103.14-1.57z" transform="translate(-949.562 -3945)"/></svg>