<svg id="Mask_Group_25" data-name="Mask Group 25" xmlns="http://www.w3.org/2000/svg" width="90" height="64.5"><defs><style>.cls-1{fill:#004cff;fill-rule:evenodd}</style></defs><g id="truck"><path id="Path_70" data-name="Path 70" class="cls-1" d="M243.749 4004.25a9 9 0 109 9 9.012 9.012 0 00-9-9zm0 15a6 6 0 116-6 6 6 0 01-6 6z" transform="translate(-222.75 -3957.75)"/><path id="Path_71" data-name="Path 71" class="cls-1" d="M294.749 4004.25a9 9 0 109 9 9.012 9.012 0 00-9-9zm0 15a6 6 0 116-6 6 6 0 01-6 6z" transform="translate(-222.75 -3957.75)"/><path id="Path_72" data-name="Path 72" class="cls-1" d="M312.511 3995.94l-13.5-21a1.5 1.5 0 00-1.262-.69h-16.5a1.5 1.5 0 00-1.5 1.5v37.5a1.5 1.5 0 001.5 1.5h6v-3h-4.5v-34.5h14.181l12.818 19.94v14.56h-7.5v3h9a1.5 1.5 0 001.5-1.5v-16.5a1.474 1.474 0 00-.237-.81z" transform="translate(-222.75 -3957.75)"/><path id="Path_73" data-name="Path 73" class="cls-1" d="M288.75 3993.75v-10.5h12v-3h-13.5a1.5 1.5 0 00-1.5 1.5v13.5a1.5 1.5 0 001.5 1.5h22.5v-3h-21z" transform="translate(-222.75 -3957.75)"/><path id="Path_74" data-name="Path 74" class="cls-1" d="M281.25 3963.75h-57a1.5 1.5 0 00-1.5 1.5v48a1.5 1.5 0 001.5 1.5h12v-3h-10.5v-45h54v45h-28.5v3h30a1.5 1.5 0 001.5-1.5v-48a1.5 1.5 0 00-1.5-1.5z" transform="translate(-222.75 -3957.75)"/><path d="M1.5 48h9v3h-9zm30 0H57v3H31.5zm51 0h6v3h-6zM6 12h52.5v3H6zm13.5 42h3v3h-3zm51 0h3v3h-3zM6 0h21v3H6zM0 0h3v3H0z" fill="#004cff"/></g></svg>